<svg width="46" height="46" viewBox="0 0 46 46" fill="none" xmlns="http://www.w3.org/2000/svg">
<path d="M16.3034 0.520153C14.8034 0.792027 13.0972 1.49515 11.7003 2.4139C10.8472 2.9764 9.09404 4.7389 8.54092 5.57328C7.12529 7.72015 6.49717 9.82952 6.49717 12.3702C6.49717 14.9202 7.14404 17.0576 8.55029 19.1576C9.12217 20.0201 10.369 21.3326 11.2597 21.9983C11.9347 22.5045 11.9534 22.5326 11.7378 22.617C10.9034 22.9545 9.29092 23.8264 8.41904 24.417C6.40342 25.767 4.85654 27.3233 3.49717 29.367C2.20342 31.2983 1.32217 33.417 0.806543 35.7608C0.562793 36.867 0.562793 36.9701 0.525293 41.1326L0.487793 45.3701H17.9628C37.1534 45.3701 36.1503 45.3983 37.9222 44.8076C40.6222 43.8983 43.069 41.7795 44.344 39.2295C45.7222 36.492 45.8909 32.9201 44.794 30.0701C43.3503 26.3483 40.1159 23.6764 36.2065 23.0014C35.5409 22.8889 34.9503 22.8608 33.8253 22.8983C32.0253 22.9452 30.9847 23.1889 29.5034 23.892L28.5659 24.342L27.6753 23.817C27.1878 23.5358 26.4003 23.1233 25.9222 22.9076L25.0503 22.5139L25.744 21.9889C26.6253 21.3326 27.8815 20.0201 28.444 19.1576C29.8503 17.0576 30.4972 14.9202 30.4972 12.3702C30.4972 9.82952 29.8597 7.71078 28.4628 5.58265C27.8909 4.72015 26.1378 2.96703 25.2753 2.40453C23.8222 1.44828 22.2097 0.792027 20.5878 0.51078C19.5753 0.332653 17.3065 0.34203 16.3034 0.520153ZM20.0347 3.56703C23.2878 4.09203 26.0722 6.59515 27.094 9.90453C27.3284 10.6639 27.3472 10.8514 27.3472 12.3702C27.3472 13.8889 27.3284 14.0764 27.094 14.8358C26.3628 17.1983 24.8253 19.092 22.6878 20.2451C21.3378 20.9764 20.0347 21.2858 18.4034 21.2858C14.5128 21.2764 11.0347 18.642 9.91904 14.8545C9.45029 13.2795 9.48779 11.0951 10.0222 9.5389C11.4472 5.34827 15.6097 2.8639 20.0347 3.56703ZM21.0284 24.6514C21.619 24.7451 22.5565 24.9701 23.1003 25.1576C24.0378 25.4576 25.9034 26.292 25.9034 26.4045C25.9034 26.4326 25.6222 26.817 25.2847 27.267C24.5065 28.2889 23.644 30.0233 23.3159 31.2608C23.1003 32.0483 23.0534 32.4514 23.0253 33.792C22.9878 35.1608 23.0065 35.517 23.1847 36.3608C23.6159 38.4608 24.5909 40.3545 26.0253 41.8733L26.494 42.3701H14.9909H3.49717V41.1233C3.50654 37.3076 3.90029 35.2639 5.14717 32.7608C6.54404 29.9389 8.68154 27.717 11.4378 26.2264C14.3815 24.6327 17.6253 24.0983 21.0284 24.6514ZM36.3097 26.1983C37.6222 26.5358 39.2065 27.4639 40.1159 28.4201C42.5534 30.9795 43.1159 34.7576 41.5128 37.8608C39.4972 41.7608 34.7628 43.3826 30.8065 41.5264C27.8722 40.1576 26.0909 37.3545 26.0909 34.1201C26.0909 32.0389 26.719 30.3795 28.1347 28.7014C28.6597 28.0826 29.8409 27.1826 30.694 26.7608C32.3159 25.9358 34.4815 25.7201 36.3097 26.1983Z" fill="white"/>
<path d="M35.3064 32.4514L33.2158 34.542L32.1564 33.4826L31.1064 32.4326L30.0471 33.492C29.4752 34.0732 28.9971 34.5889 28.9971 34.6357C28.9971 34.692 29.9439 35.6764 31.1064 36.8389L33.2158 38.9482L36.4502 35.7139L39.6846 32.4795L38.6346 31.4295C38.0533 30.8482 37.5377 30.3701 37.4814 30.3701C37.4346 30.3701 36.4502 31.3076 35.3064 32.4514Z" fill="white"/>
</svg>
