<svg width="32" height="30" viewBox="0 0 32 30" fill="none" xmlns="http://www.w3.org/2000/svg">
<path d="M15.5937 0.0874996C15.525 0.1375 15.175 0.7625 14.8187 1.4875L14.1687 2.79375L12.8125 2.9875C12.0687 3.09375 11.3875 3.2125 11.2937 3.25625C11.075 3.35625 10.9125 3.7 10.9625 3.96875C10.9937 4.13125 11.2187 4.3875 12.0437 5.1875L13.0812 6.19375L12.8375 7.61875C12.625 8.8875 12.6062 9.05625 12.6812 9.2375C12.775 9.4625 13.025 9.625 13.2875 9.625C13.4312 9.625 14.275 9.2125 15.6312 8.48125L15.9812 8.29375L17.1875 8.93125C17.85 9.2875 18.4812 9.5875 18.5937 9.60625C18.825 9.64375 19.15 9.5 19.25 9.31875C19.35 9.125 19.325 8.825 19.0937 7.48125L18.875 6.225L19.9375 5.15625C20.8562 4.23125 21 4.0625 21 3.89375C21 3.61875 20.9062 3.4 20.7375 3.2875C20.6562 3.23125 20.0062 3.1125 19.1812 2.99375L17.7687 2.79375L17.1562 1.51875C16.7875 0.7625 16.475 0.193749 16.3875 0.11875C16.2062 -0.0250006 15.775 -0.0437498 15.5937 0.0874996ZM16.925 3.89375C17.0187 3.98125 17.3062 4.05 17.9625 4.14375C18.4625 4.21875 18.875 4.29375 18.875 4.31875C18.875 4.3375 18.5812 4.6375 18.225 4.9875C17.8 5.4 17.5625 5.68125 17.5375 5.8C17.5 5.94375 17.6437 6.975 17.7875 7.6125C17.8125 7.74375 17.7375 7.71875 16.9562 7.3125C16.2625 6.95625 16.0562 6.875 15.9062 6.90625C15.8 6.925 15.375 7.1125 14.9687 7.33125C14.5562 7.55 14.2062 7.70625 14.2 7.675C14.1875 7.64375 14.2375 7.25625 14.3125 6.80625C14.3937 6.34375 14.4312 5.9 14.4125 5.78125C14.3812 5.6125 14.225 5.43125 13.7062 4.94375C13.3375 4.6 13.05 4.30625 13.0687 4.29375C13.0812 4.28125 13.4625 4.21875 13.9062 4.15625C15.1125 3.99375 15.0562 4.0375 15.55 3.0125L15.9687 2.14375L16.3812 2.9625C16.6125 3.4125 16.8562 3.83125 16.925 3.89375Z" fill="white"/>
<path d="M4.93125 5.74374C4.85 5.80624 4.5875 6.25624 4.35 6.73124L3.91875 7.60624L2.95 7.74374C2.4125 7.81874 1.925 7.91249 1.8625 7.94374C1.70625 8.02499 1.5625 8.33124 1.5625 8.56874C1.5625 8.74374 1.66875 8.87499 2.3125 9.52499L3.05625 10.2812L2.9 11.2375C2.8125 11.7625 2.75625 12.2625 2.775 12.35C2.8 12.4375 2.8875 12.5812 2.96875 12.6625C3.225 12.9187 3.475 12.8687 4.46875 12.3625L5.35 11.9187L6.19375 12.3625C7.15625 12.875 7.36875 12.9125 7.68125 12.65C7.925 12.45 7.93125 12.2375 7.7375 11.0812L7.59375 10.2562L8.29375 9.59374C9.15625 8.78124 9.28125 8.47499 8.91875 8.07499C8.7625 7.90624 8.56875 7.84999 7.54375 7.71249L6.7375 7.60624L6.275 6.68124C6.025 6.16874 5.7625 5.72499 5.69375 5.68749C5.49375 5.58749 5.09375 5.61249 4.93125 5.74374ZM5.9125 8.72499C5.99375 8.78124 6.275 8.85624 6.53125 8.89374L6.99375 8.96249L6.625 9.34999C6.2125 9.78124 6.18125 9.88124 6.3125 10.5625C6.35 10.7437 6.3625 10.9062 6.35 10.9187C6.3375 10.9312 6.1375 10.8437 5.90625 10.725C5.675 10.6 5.41875 10.5 5.3375 10.5C5.25 10.5 4.9875 10.6 4.74375 10.725L4.3 10.9437L4.35 10.6125C4.46875 9.88124 4.44375 9.79374 4.00625 9.34999L3.6125 8.95624L4.04375 8.90624C4.69375 8.83749 4.83125 8.74999 5.10625 8.21874L5.34375 7.75624L5.55 8.19374C5.6625 8.43124 5.825 8.66874 5.9125 8.72499Z" fill="white"/>
<path d="M26.1812 5.74374C26.1 5.80624 25.8375 6.25624 25.6 6.73124L25.1687 7.60624L24.2 7.74374C23.6625 7.81874 23.175 7.91249 23.1125 7.94374C22.9562 8.02499 22.8125 8.33124 22.8125 8.56874C22.8125 8.74374 22.9187 8.87499 23.5625 9.52499L24.3062 10.2812L24.15 11.2375C24.0625 11.7625 24.0062 12.2625 24.025 12.35C24.05 12.4375 24.1375 12.5812 24.2187 12.6625C24.475 12.9187 24.725 12.8687 25.7187 12.3625L26.6 11.9187L27.4437 12.3625C28.4062 12.875 28.6187 12.9125 28.9312 12.65C29.175 12.45 29.1812 12.2375 28.9875 11.0812L28.8437 10.2562L29.5437 9.59374C30.4062 8.78124 30.5312 8.47499 30.1687 8.07499C30.0125 7.90624 29.8187 7.84999 28.7937 7.71249L27.9875 7.60624L27.525 6.68124C27.275 6.16874 27.0125 5.72499 26.9437 5.68749C26.7437 5.58749 26.3437 5.61249 26.1812 5.74374ZM27.1625 8.72499C27.2437 8.78124 27.525 8.85624 27.7812 8.89374L28.2437 8.96249L27.875 9.34999C27.4625 9.78124 27.4312 9.88124 27.5625 10.5625C27.6 10.7437 27.6125 10.9062 27.6 10.9187C27.5875 10.9312 27.3875 10.8437 27.1562 10.725C26.925 10.6 26.6687 10.5 26.5875 10.5C26.5 10.5 26.2375 10.6 25.9937 10.725L25.55 10.9437L25.6 10.6125C25.7187 9.88124 25.6937 9.79374 25.2562 9.34999L24.8625 8.95624L25.2937 8.90624C25.9437 8.83749 26.0812 8.74999 26.3562 8.21874L26.5937 7.75624L26.8 8.19374C26.9125 8.43124 27.075 8.66874 27.1625 8.72499Z" fill="white"/>
<path d="M14.9062 11.3375C13.925 11.5625 13.2062 11.9688 12.4625 12.7125C11.825 13.35 11.4812 13.8937 11.2062 14.7188C11.05 15.1812 11.0375 15.2937 11.0375 16.25C11.0375 17.2063 11.05 17.3187 11.2062 17.7812C11.3 18.0562 11.4937 18.4937 11.6312 18.75C11.9875 19.3875 12.8625 20.2625 13.5 20.6187C13.9937 20.8875 14.8312 21.1875 15.1062 21.1875C15.3875 21.1875 15.225 21.25 14.7 21.3438C13.05 21.6312 11.525 22.4688 10.4187 23.7L10.0062 24.1562L9.79999 23.9625C9.49999 23.675 8.89374 23.2812 8.43124 23.0687C8.00624 22.8688 7.01249 22.5625 6.78749 22.5625C6.71874 22.5625 6.61874 22.5375 6.56874 22.5062C6.50624 22.4688 6.56249 22.4375 6.73749 22.4062C6.88124 22.3812 7.22499 22.2562 7.50624 22.1188C8.44999 21.6625 9.19374 20.7375 9.46249 19.7063C9.59374 19.2188 9.59374 18.2812 9.46249 17.7937C9.12499 16.4937 8.06874 15.4375 6.76874 15.1C6.28124 14.9688 5.34374 14.9688 4.85624 15.1C3.55624 15.4375 2.49999 16.4937 2.16249 17.7937C2.03124 18.2812 2.03124 19.2188 2.16249 19.7063C2.49374 20.9812 3.50624 22.0125 4.78124 22.3812C5.13124 22.4812 5.14374 22.4875 4.96874 22.525C3.73124 22.7937 2.91874 23.15 2.17499 23.7375C1.39374 24.3562 0.868738 25.025 0.468738 25.8937C0.0999878 26.6937 0.0499878 26.9688 0.0187378 28.375L-0.0125122 29.6562L0.156238 29.8312L0.331238 30H16H31.6687L31.8437 29.8312L32.0125 29.6562L31.9812 28.375C31.95 26.9688 31.9 26.6937 31.5312 25.8937C31.1312 25.025 30.6062 24.3562 29.825 23.7375C29.0812 23.15 28.2687 22.7937 27.0312 22.525C26.8562 22.4875 26.8687 22.4812 27.2187 22.3812C28.4937 22.0125 29.5062 20.9812 29.8375 19.7063C29.9687 19.2188 29.9687 18.2812 29.8375 17.7937C29.5 16.4937 28.4437 15.4375 27.1437 15.1C26.6562 14.9688 25.7187 14.9688 25.2312 15.1C23.9312 15.4375 22.875 16.4937 22.5375 17.7937C22.4812 18.0062 22.4375 18.4312 22.4375 18.75C22.4375 19.825 22.7875 20.675 23.5312 21.4187C24.0125 21.9 24.7437 22.3187 25.2625 22.4062C25.4375 22.4375 25.4937 22.4688 25.4312 22.5062C25.3812 22.5375 25.2812 22.5625 25.2125 22.5625C24.9875 22.5625 23.9937 22.8688 23.5687 23.0687C23.1062 23.2812 22.5 23.675 22.2 23.9625L21.9937 24.1562L21.5812 23.7C20.4625 22.4625 19 21.6562 17.2812 21.3375L16.7187 21.2312L17.0937 21.15C18.0312 20.9563 18.7875 20.5375 19.5375 19.7875C20.175 19.15 20.5187 18.6062 20.7937 17.7812C20.95 17.3187 20.9625 17.2063 20.9625 16.25C20.9625 15.2937 20.95 15.1812 20.7937 14.7188C20.5187 13.9 20.175 13.35 19.5375 12.7125C18.9 12.075 18.3437 11.725 17.5312 11.4625C17.1125 11.3188 16.8937 11.2937 16.1562 11.275C15.5625 11.2625 15.1625 11.2812 14.9062 11.3375ZM16.9062 12.6562C17.5625 12.825 18.05 13.1125 18.5937 13.6562C19.3687 14.425 19.6875 15.1875 19.6875 16.25C19.6875 17.3125 19.3687 18.075 18.5937 18.8438C17.825 19.6187 17.0625 19.9375 16 19.9375C14.9375 19.9375 14.175 19.6187 13.4062 18.8438C12.6312 18.075 12.3125 17.3125 12.3125 16.25C12.3125 15.1875 12.6312 14.425 13.4062 13.6562C13.9375 13.1187 14.4312 12.825 15.0625 12.6625C15.5187 12.5437 16.4437 12.5375 16.9062 12.6562ZM6.84999 16.5312C7.32499 16.7625 7.79999 17.2437 8.03749 17.7188C8.19999 18.0625 8.21874 18.15 8.21874 18.75C8.21874 19.35 8.19999 19.4375 8.03749 19.7812C7.79999 20.2625 7.32499 20.7375 6.84374 20.975C6.49999 21.1375 6.41249 21.1562 5.81249 21.1562C5.21249 21.1562 5.12499 21.1375 4.78124 20.975C4.29999 20.7375 3.82499 20.2625 3.58749 19.7812C3.42499 19.4375 3.40624 19.35 3.40624 18.75C3.40624 18.1625 3.42499 18.0562 3.57499 17.75C3.79999 17.2937 4.11249 16.9375 4.49999 16.6875C4.96874 16.3875 5.26249 16.3125 5.91249 16.3313C6.38749 16.3438 6.53749 16.375 6.84999 16.5312ZM27.225 16.5312C27.7 16.7625 28.175 17.2437 28.4125 17.7188C28.575 18.0625 28.5937 18.15 28.5937 18.75C28.5937 19.35 28.575 19.4375 28.4125 19.7812C28.175 20.2625 27.7 20.7375 27.2187 20.975C26.875 21.1375 26.7875 21.1562 26.1875 21.1562C25.5875 21.1562 25.5 21.1375 25.1562 20.975C24.675 20.7375 24.2 20.2625 23.9625 19.7812C23.8 19.4375 23.7812 19.35 23.7812 18.75C23.7812 18.1625 23.8 18.0562 23.95 17.75C24.175 17.2937 24.4875 16.9375 24.875 16.6875C25.3437 16.3875 25.6375 16.3125 26.2875 16.3313C26.7625 16.3438 26.9125 16.375 27.225 16.5312ZM17.6187 22.75C18.5437 23.0125 19.5187 23.5563 20.2125 24.1937C21.3562 25.2375 22.1875 27.0125 22.1875 28.4187V28.75H16H9.81249V28.4187C9.81249 27.2938 10.3375 25.925 11.1687 24.875C11.9937 23.825 13.175 23.075 14.5312 22.725C15.1187 22.575 15.1625 22.5687 16.1875 22.5938C16.95 22.6062 17.2562 22.6437 17.6187 22.75ZM7.32499 24.0437C7.98124 24.2687 8.44999 24.5437 8.92499 24.975L9.28124 25.3L9.19374 25.5062C8.74374 26.6187 8.49999 27.6125 8.49999 28.3438V28.75H4.86874H1.23749L1.28124 28.1375C1.34999 27.1187 1.58124 26.4375 2.08749 25.725C2.72499 24.8375 3.59999 24.2312 4.69999 23.9313C5.07499 23.8312 5.30624 23.8187 5.96874 23.8375C6.66874 23.8562 6.85624 23.8875 7.32499 24.0437ZM27.5812 24.0187C29.0562 24.5 30.2187 25.7188 30.5875 27.1688C30.6375 27.3687 30.7 27.8062 30.7187 28.1375L30.7625 28.75H27.1312H23.5V28.3438C23.5 27.6125 23.2562 26.6187 22.8062 25.5062L22.7187 25.3L23.075 24.975C23.525 24.5625 24 24.2812 24.5625 24.0875C25.2437 23.85 25.4625 23.8187 26.3125 23.8375C26.9437 23.85 27.1875 23.8875 27.5812 24.0187Z" fill="white"/>
<path d="M15.5375 23.9125C15.4062 24.0437 15.375 24.1375 15.375 24.375C15.375 24.7875 15.5875 25 16 25C16.4125 25 16.625 24.7875 16.625 24.375C16.625 24.1375 16.5938 24.0437 16.4625 23.9125C16.3313 23.7812 16.2375 23.75 16 23.75C15.7625 23.75 15.6688 23.7812 15.5375 23.9125Z" fill="white"/>
<path d="M17.9625 24.65C17.8 24.8125 17.75 24.9125 17.75 25.0938C17.75 25.3063 17.8063 25.3813 18.3938 25.9625C18.7875 26.3438 19.1187 26.7313 19.2375 26.95C19.475 27.375 19.6375 27.5 19.9562 27.5C20.2812 27.5 20.4875 27.35 20.5625 27.0563C20.6188 26.85 20.6125 26.7625 20.5 26.525C20.3063 26.075 19.8625 25.4938 19.3813 25.05C18.6625 24.3813 18.325 24.2875 17.9625 24.65Z" fill="white"/>
</svg>
