<svg width="27" height="27" viewBox="0 0 27 27" fill="none" xmlns="http://www.w3.org/2000/svg">
<rect x="1.14771" y="1.27466" width="24.6616" height="24.6616" stroke="#CCAA6D" stroke-opacity="0.06"/>
<path d="M12.7247 2.83082C12.7809 2.67601 12.8834 2.54225 13.0183 2.44772C13.1531 2.3532 13.3138 2.30249 13.4785 2.30249C13.6432 2.30249 13.8039 2.3532 13.9388 2.44772C14.0737 2.54225 14.1761 2.67601 14.2323 2.83082L14.999 4.92545C15.5995 6.56794 16.5512 8.05957 17.7878 9.29617C19.0244 10.5328 20.5161 11.4845 22.1586 12.085L24.2516 12.8517C24.4064 12.9079 24.5401 13.0104 24.6347 13.1452C24.7292 13.2801 24.7799 13.4408 24.7799 13.6055C24.7799 13.7702 24.7292 13.9309 24.6347 14.0657C24.5401 14.2006 24.4064 14.3031 24.2516 14.3593L22.1586 15.1259C20.5161 15.7264 19.0244 16.6782 17.7878 17.9148C16.5512 19.1514 15.5995 20.643 14.999 22.2855L14.2323 24.3785C14.1761 24.5333 14.0737 24.6671 13.9388 24.7616C13.8039 24.8562 13.6432 24.9069 13.4785 24.9069C13.3138 24.9069 13.1531 24.8562 13.0183 24.7616C12.8834 24.6671 12.7809 24.5333 12.7247 24.3785L11.9581 22.2855C11.3576 20.643 10.4058 19.1514 9.16921 17.9148C7.93261 16.6782 6.44099 15.7264 4.79849 15.1259L2.70387 14.3593C2.54905 14.3031 2.4153 14.2006 2.32077 14.0657C2.22625 13.9309 2.17554 13.7702 2.17554 13.6055C2.17554 13.4408 2.22625 13.2801 2.32077 13.1452C2.4153 13.0104 2.54905 12.9079 2.70387 12.8517L4.79849 12.085C6.44099 11.4845 7.93261 10.5328 9.16921 9.29617C10.4058 8.05957 11.3576 6.56794 11.9581 4.92545L12.7247 2.83082Z" fill="#CCAA6D"/>
</svg>
